<mxfile host="app.diagrams.net" modified="2022-11-23T16:23:16.467Z" agent="5.0 (Windows NT 10.0; Win64; x64) AppleWebKit/537.36 (KHTML, like Gecko) Chrome/107.0.0.0 Safari/537.36" version="20.6.0" etag="BhVJc-vTsSvj1JAvfrNY" type="github">
  <diagram id="lhhZfhdYV6tPWEaAxMvb" name="Page-1">
    <mxGraphModel dx="1422" dy="770" grid="1" gridSize="10" guides="1" tooltips="1" connect="1" arrows="1" fold="1" page="1" pageScale="1" pageWidth="850" pageHeight="1100" math="0" shadow="0">
      <root>
        <mxCell id="0" />
        <mxCell id="1" parent="0" />
        <mxCell id="4lu2OkIuOiIKZ5AiLCdg-20" value="" style="edgeStyle=orthogonalEdgeStyle;rounded=0;orthogonalLoop=1;jettySize=auto;html=1;" edge="1" parent="1" source="4lu2OkIuOiIKZ5AiLCdg-1" target="4lu2OkIuOiIKZ5AiLCdg-10">
          <mxGeometry relative="1" as="geometry" />
        </mxCell>
        <mxCell id="4lu2OkIuOiIKZ5AiLCdg-1" value="Start" style="strokeWidth=2;html=1;shape=mxgraph.flowchart.start_1;whiteSpace=wrap;" vertex="1" parent="1">
          <mxGeometry x="310" y="20" width="100" height="60" as="geometry" />
        </mxCell>
        <mxCell id="4lu2OkIuOiIKZ5AiLCdg-22" value="" style="edgeStyle=orthogonalEdgeStyle;rounded=0;orthogonalLoop=1;jettySize=auto;html=1;" edge="1" parent="1" source="4lu2OkIuOiIKZ5AiLCdg-3" target="4lu2OkIuOiIKZ5AiLCdg-5">
          <mxGeometry relative="1" as="geometry" />
        </mxCell>
        <mxCell id="4lu2OkIuOiIKZ5AiLCdg-3" value="Input int run" style="shape=parallelogram;perimeter=parallelogramPerimeter;whiteSpace=wrap;html=1;fixedSize=1;strokeWidth=2;" vertex="1" parent="1">
          <mxGeometry x="300" y="220" width="120" height="60" as="geometry" />
        </mxCell>
        <mxCell id="4lu2OkIuOiIKZ5AiLCdg-9" value="" style="edgeStyle=orthogonalEdgeStyle;rounded=0;orthogonalLoop=1;jettySize=auto;html=1;" edge="1" parent="1" source="4lu2OkIuOiIKZ5AiLCdg-5" target="4lu2OkIuOiIKZ5AiLCdg-8">
          <mxGeometry relative="1" as="geometry" />
        </mxCell>
        <mxCell id="4lu2OkIuOiIKZ5AiLCdg-14" value="" style="edgeStyle=orthogonalEdgeStyle;rounded=0;orthogonalLoop=1;jettySize=auto;html=1;" edge="1" parent="1" source="4lu2OkIuOiIKZ5AiLCdg-5" target="4lu2OkIuOiIKZ5AiLCdg-13">
          <mxGeometry relative="1" as="geometry" />
        </mxCell>
        <mxCell id="4lu2OkIuOiIKZ5AiLCdg-5" value="if(run&amp;lt;0)?" style="rhombus;whiteSpace=wrap;html=1;strokeWidth=2;" vertex="1" parent="1">
          <mxGeometry x="320" y="320" width="80" height="80" as="geometry" />
        </mxCell>
        <mxCell id="4lu2OkIuOiIKZ5AiLCdg-8" value="Print Sum" style="whiteSpace=wrap;html=1;strokeWidth=2;" vertex="1" parent="1">
          <mxGeometry x="510" y="330" width="120" height="60" as="geometry" />
        </mxCell>
        <mxCell id="4lu2OkIuOiIKZ5AiLCdg-21" value="" style="edgeStyle=orthogonalEdgeStyle;rounded=0;orthogonalLoop=1;jettySize=auto;html=1;" edge="1" parent="1" source="4lu2OkIuOiIKZ5AiLCdg-10" target="4lu2OkIuOiIKZ5AiLCdg-3">
          <mxGeometry relative="1" as="geometry" />
        </mxCell>
        <mxCell id="4lu2OkIuOiIKZ5AiLCdg-10" value="Initialize int Sum," style="whiteSpace=wrap;html=1;strokeWidth=2;" vertex="1" parent="1">
          <mxGeometry x="300" y="130" width="120" height="60" as="geometry" />
        </mxCell>
        <mxCell id="4lu2OkIuOiIKZ5AiLCdg-19" style="edgeStyle=orthogonalEdgeStyle;rounded=0;orthogonalLoop=1;jettySize=auto;html=1;" edge="1" parent="1" source="4lu2OkIuOiIKZ5AiLCdg-13" target="4lu2OkIuOiIKZ5AiLCdg-3">
          <mxGeometry relative="1" as="geometry">
            <mxPoint x="330" y="200" as="targetPoint" />
            <Array as="points">
              <mxPoint x="110" y="650" />
              <mxPoint x="110" y="250" />
            </Array>
          </mxGeometry>
        </mxCell>
        <mxCell id="4lu2OkIuOiIKZ5AiLCdg-13" value="Sum = Sum + Run" style="whiteSpace=wrap;html=1;strokeWidth=2;" vertex="1" parent="1">
          <mxGeometry x="300" y="480" width="120" height="60" as="geometry" />
        </mxCell>
      </root>
    </mxGraphModel>
  </diagram>
</mxfile>
